<?xml version="1.0" encoding="UTF-8"?>
<svg id="uuid-bdc7ecf8-dd68-4bda-891f-6c2044b53362" data-name="Layer 2" xmlns="http://www.w3.org/2000/svg" viewBox="0 0 549 549">
  <defs>
    <style>
      .uuid-11e3f869-9a2b-4ff2-87cd-507e6f5cc8b5 {
        fill: #fd8a3e;
      }
    </style>
  </defs>
  <g id="uuid-480995e4-1515-412e-a57a-08ebf616bddf" data-name="Layer 5">
    <path class="uuid-11e3f869-9a2b-4ff2-87cd-507e6f5cc8b5" d="m274.5,0C122.9,0,0,122.9,0,274.5s122.9,274.5,274.5,274.5,274.5-122.9,274.5-274.5S426.1,0,274.5,0Zm16.5,263.5c0,9.66-7.83,17.5-17.5,17.5s-17.5-7.84-17.5-17.5v-99.44c-80.05-6.89-81,43.93-81,46.35v190.09c0,9.66-7.83,17.5-17.5,17.5s-17.5-7.84-17.5-17.5v-190c0-.85.06-1.68.18-2.49h-.18c1-75.01,72-77.01,72-77.01h79v132.5Zm158.39,99.97c-11.07-10.77-21.95-21.75-32.92-32.63-5.45-5.4-10.92-10.78-16.33-16.21-2.51-2.51-16.13-12.95-16.13-16.04-12.66-12.14-20.92-21.58-23.07-39.45-.95-7.85-1.03-15.72-.83-23.59h-32.38c-5.93,0-10.73-4.8-10.73-10.73v-5.09c0-5.93,4.8-10.73,10.73-10.73h33.22c.01-1,.02-2,.01-2.99-.05-8.86,2.51-18.22-1.99-26.23-3.68-6.54-9.84-13.35-16.55-16.78-12.51-6.39-28.17-4.06-31.42-4.13v-27.87s19.15,0,20.89,0c20.89-.06,36.73,9.72,49.06,26.16,16.04,21.39,13.49,44.97,13.39,70.17-.04,10.61-1.98,23.48,1.44,33.74,5.29,15.85,23.12,27.22,34.57,38.55,14.75,14.59,29.5,29.19,44.24,43.79,6.27,6.21,6.27,16.29,0,22.5-7.81,7.74-18.18,4.4-25.2-2.44Z"/>
  </g>
</svg>